<svg width="256" height="256" viewBox="0 0 256 256" fill="none" xmlns="http://www.w3.org/2000/svg">
<rect width="256" height="256" fill="none"/>
<path d="M56 224H200C215.464 224 228 211.464 228 196V60C228 44.536 215.464 32 200 32H56C40.536 32 28 44.536 28 60V196C28 211.464 40.536 224 56 224Z" fill="#3B82F6"/>
<path d="M56 32H200C215.464 32 228 44.536 228 60V96H28V60C28 44.536 40.536 32 56 32Z" fill="#1E1E1E"/>
<path fill-rule="evenodd" clip-rule="evenodd" d="M84 136H60V152H84V176H100V152H124V136H100V112H84V136Z" fill="#1E1E1E"/>
<path fill-rule="evenodd" clip-rule="evenodd" d="M196 136H156V152H196V136Z" fill="#1E1E1E"/>
<path fill-rule="evenodd" clip-rule="evenodd" d="M100.043 183.957L116 199.914L127.957 187.957L112.001 172L127.957 156.043L116 144.086L100.043 160L84.0858 144.086L72.1287 156.043L88.0858 172L72.1287 187.957L84.0858 199.914L100.043 172V183.957Z" fill="#1E1E1E"/>
<path d="M176 188C182.627 188 188 182.627 188 176C188 169.373 182.627 164 176 164C169.373 164 164 169.373 164 176C164 182.627 169.373 188 176 188Z" fill="#1E1E1E"/>
<path d="M176 208C182.627 208 188 202.627 188 196C188 189.373 182.627 184 176 184C169.373 184 164 189.373 164 196C164 202.627 169.373 208 176 208Z" fill="#1E1E1E"/>
<path d="M196 196H156V200H196V196Z" fill="#1E1E1E"/>
</svg>
